<svg height="128" viewBox="0 0 512 452" xmlns="http://www.w3.org/2000/svg">

  <defs>

    <clipPath id="keyholeClip">
      <path d="M80,135 L80,90 A22.5 22.5 0 1 1 100,90 L100,135 z" />
    </clipPath>

    <clipPath id="shieldClip">
      <path d="M0,0 L180,0 L180,45 Q180,180 90,180 Q0,180 0,45 z" />
    </clipPath>

    <linearGradient id="fontGradient">
      <stop offset="0" stop-color="rgb(37, 61, 184)" />
      <stop offset="0.5" stop-color="rgb(76, 118, 248)" />
      <stop offset="1" stop-color="rgb(26, 37, 152)" />
    </linearGradient>

    <linearGradient id="flapGrad" x1="0" y1="0" x2="1" y2="1" gradientUnits="userSpaceOnUse">
      <stop offset="0" stop-color="rgb(217, 220, 223)" />
      <stop offset="1" stop-color="rgb(198, 202, 207)" />
    </linearGradient>

  </defs>
  <!-- Files -->
  <g>

    <!-- Text file -->
    <g transform="translate(30, 0)">
      <path d="M50 0 H400 L460 60 V200 H50 Z" fill="rgb(217, 220, 223)" />

      <!-- Text file corner shadow -->
      <path d="M400 0 L460 60 L400 60 Z" fill="url(#flapGrad)" />

      <!-- Text file Text lines -->

      <!-- Text file Text Line 1 -->
      <rect x="60" y="40" fill="rgb(198, 202, 207)" width="330" height="10" />

      <!-- Text file Text Line 1 -->
      <rect x="60" y="80" fill="rgb(198, 202, 207)" width="390" height="10" />

      <!-- Text file Text Line 2 -->
      <rect x="60" y="100" fill="rgb(198, 202, 207)" width="390" height="10" />

      <!-- Text file Text Line 3 -->
      <rect x="60" y="120" fill="rgb(198, 202, 207)" width="390" height="10" />

      <!-- End Text file Text lines -->

    </g>
    <!-- Text file -->

    <!-- Picture -->
    <g transform="rotate(-11.25, 256, 256)">
      <path d="M50 36 H400 L460 96 V200 H50 Z" fill="rgb(109, 171, 228)" />

      <!-- Picture corner shadow -->
      <path d="M400 36 L460 96 L400 96 Z" fill="rgb(142, 149, 159)" />
      <!-- End Picture corner shadow -->

      <!-- Sun -->
      <g>

        <!-- Sun body -->
        <circle fill="rgb(255, 181, 71)" cx="370" cy="80" r="10" />
        <!-- End Sun body -->

        <!-- Sun rays -->
        <g>
          <line stroke="rgb(255, 181, 71)" stroke-width="4" x1="370" y1="65" x2="370" y2="50" />
          <line stroke="rgb(255, 181, 71)" stroke-width="4" x1="385" y1="70" x2="395" y2="60" />
          <line stroke="rgb(255, 181, 71)" stroke-width="4" x1="385" y1="90" x2="395" y2="100" />
          <line stroke="rgb(255, 181, 71)" stroke-width="4" x1="370" y1="94" x2="370" y2="107" />
          <line stroke="rgb(255, 181, 71)" stroke-width="4" x1="355" y1="90" x2="345" y2="100" />
          <line stroke="rgb(255, 181, 71)" stroke-width="4" x1="355" y1="70" x2="345" y2="60" />
        </g>
        <!-- End Sun rays -->

      </g>
      <!-- End Sun -->

      <!-- Clouds -->
      <path fill="rgb(255, 255, 255)"
        d="M250.205,96.142c0-13.807-11.194-25-25-25c-12.426,0-22.752,8.521-24.705,20.142 c-1.221-0.396-2.521-0.642-3.895-0.642c-5.523,0-10,4.477-10,10c0,0.294,0.241,0.534,0.534,0.534h62.132 C149.964,96.676,150.205,96.436,150.205,96.142z" />
      <!-- End Clouds -->

      <!-- Mountains -->
      <g>

        <!-- Background Mountain -->
        <polygon fill="rgb(58, 107, 72)" points="270,180 330,100 390,180" />

        <!-- Middle Mountain -->
        <polygon fill="rgb(76, 148, 98)" points="300,180 360,110 420,180" />

        <!-- Foreground Mountain -->
        <polygon fill="rgb(94, 167, 123)" points="215,180 275,120 335,180" />

      </g>
      <!-- End Mountains -->

    </g>
    <!-- End Picture -->

  </g>
  <!-- End Files -->

  <!-- Folder -->
  <g>

    <!-- Folder shine -->
    <path d="M10,190 L125,190 L150,140 L502,140 Q512,140 512,150 L492,442 L20,442 L0,200 Q0,190 10,190 Z"
      fill="rgb(12, 13, 43)" />
    <!-- End Folder shine -->

    <!-- Shield shadow -->
    <polygon points="187.5,236 320,280 270,452 124.71,452" fill="rgb(11, 11, 45)" />
    <!-- End Shield shadow -->

    <!-- Shield -->
    <g transform="scale(0.75) translate(250, 275)">

      <!-- Blocks -->
      <g clip-path="url(#shieldClip)">

        <!-- First row -->
        <rect x="80" y="0" height="20" width="20" fill="rgb(88, 115, 230)" />
        <!-- End First row -->

        <!-- Second row -->
        <rect x="20" y="20" height="20" width="20" fill="rgb(78, 120, 246)" />
        <rect x="60" y="20" height="20" width="20" fill="rgb(73, 116, 249)" />
        <rect x="80" y="20" height="20" width="20" fill="rgb(81, 95, 220)" />
        <rect x="120" y="20" height="20" width="20" fill="rgb(115, 56, 236)" />
        <!-- End Second row -->

        <!-- Third row -->
        <rect x="0" y="40" height="20" width="20" fill="rgb(60, 110, 248)" />
        <rect x="20" y="40" height="20" width="20" fill="rgb(68, 115, 245)" />
        <rect x="40" y="40" height="20" width="20" fill="rgb(76, 118, 248)" />
        <rect x="60" y="40" height="20" width="20" fill="rgb(77, 94, 225)" />
        <rect x="80" y="40" height="20" width="20" fill="rgb(82, 87, 223)" />
        <rect x="100" y="40" height="20" width="20" fill="rgb(104, 81, 238)" />
        <rect x="120" y="40" height="20" width="20" fill="rgb(102, 79, 240)" />
        <rect x="140" y="40" height="20" width="20" fill="rgb(110, 52, 222)" />
        <!-- End Third row -->

        <!-- Fourth row -->
        <rect x="0" y="60" height="20" width="20" fill="rgb(45, 96, 228)" />
        <rect x="20" y="60" height="20" width="20" fill="rgb(60, 106, 238)" />
        <rect x="40" y="60" height="20" width="20" fill="rgb(70, 109, 236)" />
        <rect x="60" y="60" height="20" width="20" fill="rgb(84, 97, 212)" />
        <rect x="100" y="60" height="20" width="20" fill="rgb(83, 67, 211)" />
        <rect x="120" y="60" height="20" width="20" fill="rgb(87, 48, 198)" />
        <rect x="140" y="60" height="20" width="20" fill="rgb(107, 49, 215)" />
        <rect x="160" y="60" height="20" width="20" fill="rgb(95, 42, 201)" />
        <!-- End Fourth row -->

        <!-- Fifth row -->
        <rect x="20" y="80" height="20" width="20" fill="rgb(47, 94, 226)" />
        <rect x="40" y="80" height="20" width="20" fill="rgb(49, 85, 221)" />
        <rect x="60" y="80" height="20" width="20" fill="rgb(35, 47, 167)" />
        <rect x="100" y="80" height="20" width="20" fill="rgb(37, 61, 184)" />
        <rect x="120" y="80" height="20" width="20" fill="rgb(89, 45, 201)" />
        <rect x="140" y="80" height="20" width="20" fill="rgb(85, 42, 195)" />
        <!-- End Fifth row -->

        <!-- Sixth row -->
        <rect x="0" y="100" height="20" width="20" fill="rgb(37, 84, 213)" />
        <rect x="20" y="100" height="20" width="20" fill="rgb(39, 82, 212)" />
        <rect x="40" y="100" height="20" width="20" fill="rgb(41, 81, 212)" />
        <rect x="60" y="100" height="20" width="20" fill="rgb(37, 61, 184)" />
        <rect x="100" y="100" height="20" width="20" fill="rgb(53, 66, 171)" />
        <rect x="120" y="100" height="20" width="20" fill="rgb(55, 35, 167)" />
        <rect x="140" y="100" height="20" width="20" fill="rgb(77, 40, 188)" />
        <rect x="160" y="100" height="20" width="20" fill="rgb(86, 39, 195)" />
        <!-- End Sixth row -->

        <!-- Seventh row -->
        <rect x="0" y="120" height="20" width="20" fill="rgb(31, 69, 196)" />
        <rect x="20" y="120" height="20" width="20" fill="rgb(30, 49, 167)" />
        <rect x="40" y="120" height="20" width="20" fill="rgb(36, 59, 188)" />
        <rect x="60" y="120" height="20" width="20" fill="rgb(32, 46, 170)" />
        <rect x="80" y="120" height="20" width="20" fill="rgb(49, 36, 168)" />
        <rect x="100" y="120" height="20" width="20" fill="rgb(46, 37, 163)" />
        <rect x="120" y="120" height="20" width="20" fill="rgb(40, 29, 137)" />
        <rect x="140" y="120" height="20" width="20" fill="rgb(67, 34, 169)" />
        <rect x="160" y="120" height="20" width="20" fill="rgb(62, 31, 161)" />
        <!-- End Seventh row -->

        <!-- Eighth row -->
        <rect x="0" y="140" height="20" width="20" fill="rgb(31, 69, 196)" />
        <rect x="20" y="140" height="20" width="20" fill="rgb(21, 41, 164)" />
        <rect x="40" y="140" height="20" width="20" fill="rgb(26, 37, 152)" />
        <rect x="60" y="140" height="20" width="20" fill="rgb(25, 27, 130)" />
        <rect x="80" y="140" height="20" width="20" fill="rgb(32, 37, 157)" />
        <rect x="100" y="140" height="20" width="20" fill="rgb(35, 23, 131)" />
        <rect x="120" y="140" height="20" width="20" fill="rgb(26, 19, 99)" />
        <rect x="140" y="140" height="20" width="20" fill="rgb(21, 18, 87)" />
        <rect x="160" y="140" height="20" width="20" fill="rgb(62, 31, 161)" />
        <!-- End Eighth row -->

        <!-- Ninth row -->
        <rect x="20" y="160" height="20" width="20" fill="rgb(18, 17, 77)" />
        <rect x="40" y="160" height="20" width="20" fill="rgb(26, 20, 108)" />
        <rect x="80" y="160" height="20" width="20" fill="rgb(27, 24, 129)" />
        <rect x="100" y="160" height="20" width="20" fill="rgb(26, 19, 112)" />
        <rect x="120" y="160" height="20" width="20" fill="rgb(33, 21, 131)" />
        <rect x="140" y="160" height="20" width="20" fill="rgb(28, 18, 115)" />
        <!-- End Ninth row -->

      </g>
      <!-- End Blocks -->

      <!-- Keyhole shine-->
      <path d="M80,135 L80,90 A22.5 22.5 0 1 1 100,90 L100,135 z" fill="rgb(18, 22, 52)" />
      <!-- End Keyhole shine -->

      <!-- Keyhole shadow-->
      <path d="M67.5,135 L67.5,90 A22.5 22.5 0 1 1 87.5,90 L87.5,135 z" fill="rgb(11, 15, 44)"
        clip-path="url(#keyholeClip)" />
      <!-- End Keyhole shadow-->

    </g>
    <!-- End Shield -->

    <!-- Key -->
    <g fill="rgb(153, 153, 153)" transform="rotate(15 260 305) scale(0.5) translate(500, 525)">

      <path
        d="M10,35 L110,35 A 50 50 0 1 1 110 70 L105,70 L100,65 L90,65 L80,75 L70,65 L65,65 L55,75 L45,65 L40,65 L30,75 L20,65 L10,65 L0,45 z M195 52.5 A10 10 0 1 0 175 52.5 A10 10 0 1 0 195 52.5 z" />

    </g>
    <!-- End Key -->

    <!-- Text shadow -->
    <polygon points="156,360 356,360 329.26,452 156,452" fill="rgb(11, 11, 45)" />
    <!-- End Text shadow -->

    <!-- App Name -->
    <text x="156" y="375" font-family="Sans" font-size="32" style="fill: url(#fontGradient)">ShadowCrypt</text>
    <!-- End App Name -->

    <!-- Folder lower shadow -->
    <path d="M20,442 L492,442 Q492,452 482,452 L30.75,452 Q20.75,452 20,442 Z" fill="rgb(20,20,30)" />
    <!-- End Folder lower shadow -->

    <!-- Folder upper shadow -->
    <path d="M30.25,180 L118.33,180 L150,140 L125,190 L32.5,190 Z" fill="rgb(20,20,30)" />
    <!-- End Folder upper shadow -->

  </g>
  <!-- End Folder -->

</svg>